<svg width="1600" height="1600" viewBox="0 0 1600 1600" fill="none" xmlns="http://www.w3.org/2000/svg">
<path fill-rule="evenodd" clip-rule="evenodd" d="M954.339 583.915C886.557 583.915 761.561 683.988 658.545 812.927C608.782 766.482 561.404 736.674 530.114 736.674C433.696 736.674 183 1086.3 183 1271.28C183 1347.66 299.832 1347.66 491.535 1347.66C499.994 1347.66 508.458 1347.66 516.903 1347.65H794.356C844.217 1348.43 898.107 1347.66 954.36 1347.66C1209.96 1347.66 1417.16 1347.66 1417.16 1271.28C1417.15 1036.95 1083.39 583.915 954.349 583.915H954.339ZM320.127 525.253C395.863 525.253 457.254 463.862 457.254 388.126C457.254 312.39 395.863 251 320.127 251C244.391 251 183 312.39 183 388.126C183 463.862 244.391 525.253 320.127 525.253Z" fill="white"/>
</svg>
